# xmcd
# Track frame offsets:
# 150
# 15308
# 33631
# 45426
# 60473
# 72829
# 87734
# 102673
# 117945
# 132402
# 150937
# 164699
# 184150
# 202526
# 218729
#
# Disc length: 3149 seconds
# Revision: 0
# Processed by: cddbd v1.5.1PL0 Copyright (c) Steve Scherf et al.
# Submitted via: VisiTrax 2.9.10.228 - For more info visit www.synapsa.com
#
DISCID=c80c4b0f
DTITLE=Raye, Collin - CB90009
DYEAR=1900
DGENRE=Karaoke
TTITLE0=All I Can Be Is A Sweet Memory
TTITLE1=Love Me
TTITLE2=Every Second
TTITLE3=In This Life
TTITLE4=I Want You Bad (And That Ain't Good)
TTITLE5=Let It Be Me
TTITLE6=Somebody Else's Moon
TTITLE7=That Was A River
TTITLE8=That's My Story
TTITLE9=Little Rock
TTITLE10=My Kind Of Girl
TTITLE11=One Boy, One Girl
TTITLE12=Not That Different
TTITLE13=I Think About You
TTITLE14=Love Remains
EXTD=
EXTT0=
EXTT1=
EXTT2=
EXTT3=
EXTT4=
EXTT5=
EXTT6=
EXTT7=
EXTT8=
EXTT9=
EXTT10=
EXTT11=
EXTT12=
EXTT13=
EXTT14=
PLAYORDER=
